<svg width="87" height="32" viewBox="0 0 87 32" fill="none" xmlns="http://www.w3.org/2000/svg">
<g clip-path="url(#clip0_12_1349)">
<path d="M15.7353 29.768H0V31.9962H15.7353V29.768Z" fill="#1F70C1"/>
<path d="M15.7353 25.513H0V27.7412H15.7353V25.513Z" fill="#1F70C1"/>
<path d="M11.2385 21.2621H4.48901V23.4902H11.2385V21.2621Z" fill="#1F70C1"/>
<path d="M11.2385 17.0111H4.48901V19.2392H11.2385V17.0111Z" fill="#1F70C1"/>
<path d="M11.2385 12.7601H4.48901V14.9883H11.2385V12.7601Z" fill="#1F70C1"/>
<path d="M11.2385 8.50196H4.48901V10.7301H11.2385V8.50196Z" fill="#1F70C1"/>
<path d="M15.7353 4.25082H0V6.47897H15.7353V4.25082Z" fill="#1F70C1"/>
<path d="M15.7353 0H0V2.22815H15.7353V0Z" fill="#1F70C1"/>
<path d="M17.9802 31.9761L34.7417 31.9998C36.9862 31.9998 39.0142 31.1465 40.5292 29.7716H17.9805L17.9802 31.9761Z" fill="#1F70C1"/>
<path d="M17.9802 27.741H42.1808C42.5896 27.0537 42.8942 26.303 43.0786 25.5129H17.9805L17.9802 27.741Z" fill="#1F70C1"/>
<path d="M29.2182 21.2621H22.4767V23.4902H29.2182V21.2621Z" fill="#1F70C1"/>
<path d="M35.9678 21.2621V23.4902H43.3265C43.3265 22.7238 43.2223 21.9732 43.0219 21.2621H35.9678Z" fill="#1F70C1"/>
<path d="M40.2967 17.0111H22.4767V19.2392H42.18C41.6669 18.3859 41.0336 17.6353 40.2961 17.0111H40.2967Z" fill="#1F70C1"/>
<path d="M22.4767 12.7601V14.9883H40.2967C41.0503 14.3641 41.6835 13.6134 42.1805 12.7601H22.4767Z" fill="#1F70C1"/>
<path d="M29.2182 8.50196H22.4767V10.7301H29.2182V8.50196Z" fill="#1F70C1"/>
<path d="M35.9678 10.73H43.0219C43.2223 10.0189 43.3265 9.26823 43.3265 8.5018H35.9678V10.73Z" fill="#1F70C1"/>
<path d="M42.1808 4.25082H17.9802V6.47897H43.0783C42.8699 5.68885 42.5653 4.93828 42.1806 4.25082H42.1808Z" fill="#1F70C1"/>
<path d="M34.7417 0H17.9802V2.22815H40.5217C39.0147 0.853307 36.9707 0 34.7422 0H34.7417Z" fill="#1F70C1"/>
<path d="M44.9624 6.47897H60.1044L59.3267 4.25082H44.9624V6.47897Z" fill="#1F70C1"/>
<path d="M44.9624 2.22815H58.6137L57.836 0H44.9624V2.22815Z" fill="#1F70C1"/>
<path d="M69.6833 32.0016V29.7736H80.9302V32.0016H69.6833Z" fill="#1F70C1"/>
<path d="M69.6833 27.741V25.513H80.9302V27.741H69.6833Z" fill="#1F70C1"/>
<path d="M62.9419 14.5613L62.309 12.7601H56.2004H49.4508V14.9881H56.2004V12.942L56.9142 14.9881H68.9704L69.6834 12.942V14.9881H76.4329V12.7601H69.6834H63.5756L62.9419 14.5613Z" fill="#1F70C1"/>
<path d="M76.433 8.50196H65.0663L64.2886 10.73H76.433V8.50196Z" fill="#1F70C1"/>
<path d="M80.9302 2.22815V0H68.0567L67.2789 2.22815H80.9302Z" fill="#1F70C1"/>
<path d="M62.1649 29.772L62.9418 31.9761L63.7196 29.772H62.1649Z" fill="#1F70C1"/>
<path d="M60.6572 25.513L61.4512 27.741H64.4334L65.2346 25.513H60.6572Z" fill="#1F70C1"/>
<path d="M59.1422 21.2621L59.9361 23.4901H65.9484L66.7416 21.2621H59.1422Z" fill="#1F70C1"/>
<path d="M58.4292 19.2391H67.4635L68.2331 17.0111H57.6515L58.4292 19.2391Z" fill="#1F70C1"/>
<path d="M49.4508 10.73H61.5952L60.8183 8.50196H49.4508V10.73Z" fill="#1F70C1"/>
<path d="M80.9303 4.25082H66.557L65.7882 6.47897H80.9303V4.25082Z" fill="#1F70C1"/>
<path d="M56.2093 29.772H44.9624V32.0002H56.2093V29.772Z" fill="#1F70C1"/>
<path d="M56.2093 25.513H44.9624V27.7412H56.2093V25.513Z" fill="#1F70C1"/>
<path d="M56.2003 21.2621H49.4508V23.4902H56.2003V21.2621Z" fill="#1F70C1"/>
<path d="M56.2003 17.0111H49.4508V19.2392H56.2003V17.0111Z" fill="#1F70C1"/>
<path d="M76.4328 17.0111H69.6833V19.2392H76.4328V17.0111Z" fill="#1F70C1"/>
<path d="M76.4328 21.2621H69.6833V23.4902H76.4328V21.2621Z" fill="#1F70C1"/>
<path d="M85.1386 28.4901C84.6664 28.4901 84.2135 28.675 83.8796 29.0041C83.5457 29.3332 83.3582 29.7796 83.3582 30.245C83.3582 30.7105 83.5457 31.1569 83.8796 31.486C84.2135 31.8151 84.6664 32 85.1386 32C85.6108 32 86.0637 31.8151 86.3976 31.486C86.7315 31.1569 86.9191 30.7105 86.9191 30.245C86.9191 29.7796 86.7315 29.3332 86.3976 29.0041C86.0637 28.675 85.6108 28.4901 85.1386 28.4901ZM85.1386 28.8092C85.525 28.8092 85.8955 28.9605 86.1687 29.2297C86.4419 29.499 86.5954 29.8642 86.5954 30.245C86.5954 30.6259 86.4419 30.9911 86.1687 31.2604C85.8955 31.5296 85.525 31.6809 85.1386 31.6809C84.7523 31.6809 84.3817 31.5296 84.1085 31.2604C83.8354 30.9911 83.6819 30.6259 83.6819 30.245C83.6819 29.8642 83.8354 29.499 84.1085 29.2297C84.3817 28.9605 84.7523 28.8092 85.1386 28.8092ZM84.3821 29.3511V31.139H84.8234V30.5224H85.0741L85.4111 31.139H85.8951L85.4886 30.4544C85.6878 30.3775 85.8173 30.1979 85.8173 29.916C85.8173 29.5904 85.6102 29.3511 85.2037 29.3511H84.3821ZM84.8234 29.6932H85.1516C85.2901 29.6932 85.3675 29.753 85.3675 29.8811V30.0098C85.3675 30.1378 85.2901 30.198 85.1516 30.198H84.8234V29.6932Z" fill="#1F70C1"/>
</g>
<defs>
<clipPath id="clip0_12_1349">
<rect width="87" height="32" fill="white"/>
</clipPath>
</defs>
</svg>
