<svg width="28" height="28" viewBox="0 0 28 28" fill="none" xmlns="http://www.w3.org/2000/svg">
<path d="M17.5 2.33337H6.99999C6.38115 2.33337 5.78766 2.57921 5.35007 3.01679C4.91249 3.45438 4.66666 4.04787 4.66666 4.66671V23.3334C4.66666 23.9522 4.91249 24.5457 5.35007 24.9833C5.78766 25.4209 6.38115 25.6667 6.99999 25.6667H21C21.6188 25.6667 22.2123 25.4209 22.6499 24.9833C23.0875 24.5457 23.3333 23.9522 23.3333 23.3334V8.16671L17.5 2.33337Z" stroke="#155DFC" stroke-width="2.33333" stroke-linecap="round" stroke-linejoin="round"/>
<path d="M16.3333 2.33337V7.00004C16.3333 7.61888 16.5792 8.21237 17.0168 8.64996C17.4543 9.08754 18.0478 9.33337 18.6667 9.33337H23.3333" stroke="#155DFC" stroke-width="2.33333" stroke-linecap="round" stroke-linejoin="round"/>
<path d="M11.6667 10.5H9.33334" stroke="#155DFC" stroke-width="2.33333" stroke-linecap="round" stroke-linejoin="round"/>
<path d="M18.6667 15.1666H9.33334" stroke="#155DFC" stroke-width="2.33333" stroke-linecap="round" stroke-linejoin="round"/>
<path d="M18.6667 19.8334H9.33334" stroke="#155DFC" stroke-width="2.33333" stroke-linecap="round" stroke-linejoin="round"/>
</svg>
