<svg width="12" height="13" viewBox="0 0 12 13" fill="none" xmlns="http://www.w3.org/2000/svg">
<path d="M1.16864 7.58489C1.05825 7.58527 0.95002 7.55432 0.856525 7.49563C0.76303 7.43694 0.688105 7.35293 0.640456 7.25336C0.592807 7.15379 0.57439 7.04274 0.587344 6.93311C0.600297 6.82349 0.644091 6.71979 0.713636 6.63406L6.48864 0.68406C6.53195 0.634057 6.59099 0.600268 6.65604 0.588237C6.7211 0.576207 6.78831 0.586651 6.84664 0.617854C6.90498 0.649057 6.95098 0.699166 6.97708 0.759956C7.00319 0.820746 7.00785 0.888605 6.9903 0.952393L5.8703 4.46406C5.83728 4.55245 5.82619 4.64753 5.83798 4.74115C5.84978 4.83476 5.8841 4.92412 5.93802 5.00156C5.99194 5.07899 6.06384 5.14219 6.14755 5.18574C6.23126 5.22928 6.32428 5.25187 6.41864 5.25156H10.502C10.6124 5.25118 10.7206 5.28214 10.8141 5.34082C10.9076 5.39951 10.9825 5.48352 11.0301 5.58309C11.0778 5.68267 11.0962 5.79372 11.0833 5.90334C11.0703 6.01297 11.0265 6.11667 10.957 6.20239L5.18197 12.1524C5.13865 12.2024 5.07962 12.2362 5.01456 12.2482C4.94951 12.2602 4.8823 12.2498 4.82396 12.2186C4.76562 12.1874 4.71963 12.1373 4.69352 12.0765C4.66742 12.0157 4.66276 11.9478 4.6803 11.8841L5.8003 8.37239C5.83333 8.284 5.84442 8.18892 5.83262 8.09531C5.82083 8.00169 5.7865 7.91233 5.73258 7.83489C5.67867 7.75746 5.60677 7.69426 5.52306 7.65072C5.43935 7.60717 5.34633 7.58459 5.25197 7.58489H1.16864Z" stroke="#0F62FE" stroke-width="1.16667" stroke-linecap="round" stroke-linejoin="round"/>
</svg>
