<svg width="11" height="11" viewBox="0 0 11 11" fill="none" xmlns="http://www.w3.org/2000/svg">
<g clip-path="url(#clip0_7_1815)">
<path d="M5.04948 1.28977C5.06912 1.18463 5.12491 1.08967 5.20719 1.02133C5.28947 0.952996 5.39306 0.915588 5.50002 0.915588C5.60698 0.915588 5.71057 0.952996 5.79285 1.02133C5.87513 1.08967 5.93092 1.18463 5.95056 1.28977L6.43227 3.83719C6.46648 4.0183 6.5545 4.18489 6.68482 4.31521C6.81515 4.44554 6.98174 4.53356 7.16285 4.56777L9.71027 5.04948C9.81541 5.06912 9.91037 5.12491 9.97871 5.20719C10.047 5.28947 10.0844 5.39306 10.0844 5.50002C10.0844 5.60698 10.047 5.71057 9.97871 5.79285C9.91037 5.87513 9.81541 5.93092 9.71027 5.95056L7.16285 6.43227C6.98174 6.46648 6.81515 6.5545 6.68482 6.68482C6.5545 6.81515 6.46648 6.98174 6.43227 7.16285L5.95056 9.71027C5.93092 9.81541 5.87513 9.91037 5.79285 9.97871C5.71057 10.047 5.60698 10.0844 5.50002 10.0844C5.39306 10.0844 5.28947 10.047 5.20719 9.97871C5.12491 9.91037 5.06912 9.81541 5.04948 9.71027L4.56777 7.16285C4.53356 6.98174 4.44554 6.81515 4.31521 6.68482C4.18489 6.5545 4.0183 6.46648 3.83719 6.43227L1.28977 5.95056C1.18463 5.93092 1.08967 5.87513 1.02133 5.79285C0.952996 5.71057 0.915588 5.60698 0.915588 5.50002C0.915588 5.39306 0.952996 5.28947 1.02133 5.20719C1.08967 5.12491 1.18463 5.06912 1.28977 5.04948L3.83719 4.56777C4.0183 4.53356 4.18489 4.44554 4.31521 4.31521C4.44554 4.18489 4.53356 4.0183 4.56777 3.83719L5.04948 1.28977Z" stroke="#008236" stroke-width="0.875" stroke-linecap="round" stroke-linejoin="round"/>
<path d="M9.16669 0.916687V2.75002" stroke="#008236" stroke-width="0.875" stroke-linecap="round" stroke-linejoin="round"/>
<path d="M10.0833 1.83331H8.25" stroke="#008236" stroke-width="0.875" stroke-linecap="round" stroke-linejoin="round"/>
<path d="M1.83335 10.0833C2.33961 10.0833 2.75002 9.67293 2.75002 9.16667C2.75002 8.66041 2.33961 8.25 1.83335 8.25C1.32709 8.25 0.916687 8.66041 0.916687 9.16667C0.916687 9.67293 1.32709 10.0833 1.83335 10.0833Z" stroke="#008236" stroke-width="0.875" stroke-linecap="round" stroke-linejoin="round"/>
</g>
<defs>
<clipPath id="clip0_7_1815">
<rect width="11" height="11" fill="white"/>
</clipPath>
</defs>
</svg>
